# xmcd
#
# Track frame offsets:
#	150
#	16679
#	32944
#	49292
#	69811
#	87513
#	111293
#	132954
#	152317
#	169381
#
# Disc length: 2513 seconds
#
# Revision: 2
# Processed by: cddbd v1.5.2PL0 Copyright (c) Steve Scherf et al.
# Submitted via: audiograbber 1.83.01
#
DISCID=7b09cf0a
DTITLE=Keith Urban - Get Closer
DYEAR=2010
DGENRE=Country
TTITLE0=Put You In A Song
TTITLE1=You Gonna Fly
TTITLE2=All For You
TTITLE3=Long Hot Summer
TTITLE4=Without You
TTITLE5=Georgia Woods
TTITLE6=Right On Back To You
TTITLE7=Shut Out The Lights
TTITLE8=Big Promises
TTITLE9=The Luxury Of Knowing
EXTD=
EXTT0=
EXTT1=
EXTT2=
EXTT3=
EXTT4=
EXTT5=
EXTT6=
EXTT7=
EXTT8=
EXTT9=
PLAYORDER=
